<svg width="161" height="49" viewBox="0 0 161 49" fill="none" xmlns="http://www.w3.org/2000/svg">
<path d="M88.1481 25.2978H85.1103V5.42782H88.1481V13.2151L88.6525 13.2164C90.2997 13.2206 90.8312 11.4297 90.8312 10.1007V5.42782H93.869V9.97215C93.869 12.0626 93.0958 13.6287 91.5905 14.6548C93.2206 15.8058 93.869 17.2471 93.869 19.3374V25.2978H90.8312V19.2089C90.8312 17.9223 90.2211 16.3633 88.6771 16.376L88.1481 16.3802V25.2978ZM139.71 25.2978V5.42782H142.416V17.0382L145.536 5.42782H148.923V25.2978H146.189V11.4727L142.46 25.3229L139.71 25.2978ZM151.074 25.2978V5.42782H153.78V17.0382L156.901 5.42782H160.287V25.2978H157.553V11.4727L153.824 25.3229L151.074 25.2978ZM159.022 0.71875V3.04644H152.339V0.71875H159.022ZM131.979 25.2978H128.942V5.42782H131.979V13.2151L132.484 13.2164C134.131 13.2206 134.662 11.4297 134.662 10.1007V5.42782H137.7V9.97215C137.7 12.0626 136.927 13.6287 135.422 14.6548C137.052 15.8058 137.7 17.2471 137.7 19.3374V25.2978H134.662V19.2089C134.662 17.9223 134.052 16.3633 132.508 16.376L131.979 16.3802V25.2978ZM76.9809 25.2621H73.9431V5.39221H82.9595V13.3669H79.8665V8.23082H76.9809V22.4236H79.8665V17.2874H82.9595V25.2621H76.9809ZM120.812 25.2621H117.774V5.39221H126.791V13.3669H123.698V8.23082H120.812V22.4236H123.698V17.2874H126.791V25.2621H120.812ZM68.6992 8.23082H65.8688V22.4236H68.6992V8.23082ZM65.8137 25.2621H62.7759V5.39221H71.7922V25.2621H65.8137ZM101.943 8.23082H99.1129V22.4236H101.943V8.23082ZM99.0576 25.2621H96.0198V5.39221H105.036V25.2621H99.0576ZM110.225 8.23082V13.559C111.357 13.6214 112.727 13.5538 112.727 11.5271V9.71959H112.726V8.23082H110.225ZM110.225 16.4041V22.4236H112.726C112.726 21.1353 112.727 19.8498 112.727 18.5608C112.727 16.5341 111.357 16.3417 110.225 16.4041ZM115.765 8.89228V11.3284C115.765 12.9124 115.111 14.0646 114.071 14.8072C115.187 15.6901 115.765 17.0611 115.765 18.7595V25.2621C113.919 25.2621 112.072 25.2556 110.225 25.2552V25.2621H107.187V5.3922H110.225V5.39921C112.072 5.39873 113.919 5.3922 115.765 5.3922V8.89228ZM54.2322 18.7043C55.0269 14.4547 56.0632 9.71138 56.5415 5.42782H60.6251V25.2978H57.9739V17.4367L58.2862 10.3343C57.9058 12.6191 56.4125 21.0404 54.5154 25.0749V25.0874H53.949V25.0749C52.0519 21.0404 50.5586 12.6191 50.1782 10.3343L50.4905 17.4367V25.2978H47.8394V5.42782H51.9229C52.4012 9.71138 53.4375 14.4547 54.2322 18.7043Z" fill="#E52330"/>
<path d="M84.2647 31.259V40.1104C85.3972 40.1728 86.7672 39.9804 86.7672 37.9538V36.1462H86.7656V31.259L84.2647 31.259ZM89.805 35.3188V37.755C89.805 40.8122 88.2237 42.9489 85.2761 42.9489H84.2647V48.2903H81.2271V28.4204C84.0854 28.4363 86.9462 28.4204 89.805 28.4204V35.3188ZM90.6404 28.4204H100.03V31.259H96.854V48.2903H93.8163V31.259H90.6404V28.4204ZM76.069 31.259H73.2386V45.4518H76.069V31.259ZM73.1834 48.2903H70.1457V28.4204H79.162V48.2903H73.1834ZM50.8772 48.2903H47.8394V28.4204H56.8558V36.3951H53.7628V31.259H50.8772V45.4518H53.7628V40.3156H56.8558V48.2903L50.8772 48.2903ZM62.033 48.2903H58.9952V28.4204H68.0116V48.2903H64.9185V31.259H62.033V48.2903Z" fill="#E52330"/>
<path d="M21.3237 37.9568C22.0748 38.8678 22.8827 39.7346 23.7424 40.5521C27.7648 44.3767 32.9198 47.1246 38.6726 48.2902V44.8548C33.8933 43.7482 29.6113 41.3966 26.2329 38.1842C25.1236 37.1294 24.1117 35.9818 23.2119 34.7554L21.3237 37.9568Z" fill="#E52330"/>
<path d="M8.84753 34.3791C12.6135 30.7981 14.951 25.8602 14.951 20.4299L14.9515 5.39209H18.4734L18.4739 20.4299C18.4739 23.0742 18.9154 26.1734 19.7244 28.5749C20.5333 26.1734 20.9749 23.0742 20.9749 20.4299L20.9753 5.39209H24.4973L24.4977 20.4299C24.4977 25.8602 26.8352 30.7981 30.6012 34.3791C32.848 36.5153 35.603 38.1679 38.6726 39.1538V42.6611C34.63 41.5694 31.0084 39.5023 28.111 36.7471C25.9334 34.6766 24.1649 32.2172 22.9329 29.4914C22.0137 31.8533 20.9993 34.0896 19.7326 35.7925L19.7244 35.8039L19.7161 35.7925C18.4494 34.0896 17.435 31.8533 16.5158 29.4914C15.2839 32.2172 13.5153 34.6766 11.3378 36.7471C8.44033 39.5023 4.81869 41.5694 0.776123 42.6611V39.1538C3.84569 38.1679 6.60066 36.5153 8.84753 34.3791Z" fill="#E52330"/>
<path d="M30.1288 20.1153C30.1288 24.0719 31.8324 27.6702 34.577 30.2799C35.7653 31.4098 37.1485 32.354 38.6727 33.0617V36.7089C36.1809 35.8072 33.9405 34.4109 32.0865 32.6479C28.7053 29.4329 26.6064 24.9966 26.6064 20.1153V16.7271H30.1288V20.1153Z" fill="#E52330"/>
<path d="M9.31995 16.7271H12.8423V20.1153C12.8423 24.9966 10.7435 29.4329 7.36224 32.6479C5.50829 34.4109 3.26797 35.8072 0.776123 36.7089V33.0617C2.30025 32.354 3.68352 31.4098 4.87183 30.2799C7.61638 27.6702 9.31995 24.0719 9.31995 20.1153V16.7271Z" fill="#E52330"/>
<path d="M16.2368 34.7554C15.337 35.9818 14.3251 37.1294 13.2158 38.1842C9.83745 41.3966 5.55539 43.7483 0.776123 44.8548V48.2902C6.52901 47.1246 11.6839 44.3767 15.7063 40.5521C16.566 39.7346 17.3739 38.8678 18.125 37.9568L16.2368 34.7554Z" fill="#E52330"/>
</svg>
