<svg width="2972" height="3000" viewBox="0 0 2972 3000" fill="none" xmlns="http://www.w3.org/2000/svg">
<path d="M1833.61 497.125L1801.91 596.227L1787.19 591.428L1814.35 506.481L1798.93 501.454L1771.77 586.397L1757.04 581.594L1788.74 482.493L1833.61 497.125Z" fill="#E52031"/>
<path d="M1818.41 602.449C1814.57 600.924 1813.13 597.317 1814.58 593.577L1847.32 509.42C1848.78 505.685 1852.28 504.033 1856.11 505.558L1886.68 517.681C1890.52 519.206 1891.96 522.814 1890.51 526.549L1857.77 610.706C1856.31 614.445 1852.82 616.097 1848.99 614.572L1818.41 602.449ZM1846.28 597.523L1873.21 528.315L1858.81 522.607L1831.88 591.815L1846.28 597.523Z" fill="#E52031"/>
<path d="M1896.99 636.17C1893.3 634.311 1892.18 630.585 1893.96 626.995L1933.98 546.093C1935.75 542.5 1939.37 541.168 1943.06 543.031L1977.2 560.243L1964.03 586.854L1950.19 579.876L1956.78 566.571L1944.26 560.256L1911.35 626.788L1923.86 633.103L1932.42 615.803L1946.26 622.781L1931.12 653.386L1896.99 636.17Z" fill="#E52031"/>
<path d="M1954.83 666.797L1937.08 656.488L1944.42 643.596L1949.53 646.562L1997.94 571.716L2030.63 590.699L1979.22 680.959L1965.81 673.173L2009.87 595.809L2003.23 591.956L1954.83 666.797Z" fill="#E52031"/>
<path d="M2044.84 599.592L2076.94 620.689L2068.91 633.16L2049.77 620.579L2036.11 641.776L2054.63 653.948L2046.59 666.419L2028.06 654.247L2009.59 682.923L2028.72 695.499L2020.68 707.97L1988.57 686.869L2044.84 599.592Z" fill="#E52031"/>
<path d="M2126.62 656.836L2074.31 728.759L2078.47 731.839L2061.74 754.856L2049.27 745.615L2057.29 734.585L2038.89 720.942L2030.87 731.971L2018.4 722.731L2035.14 699.714L2039.89 703.233L2097.06 634.917L2126.62 656.836ZM2061.85 719.518L2105.44 659.577L2100.09 655.618L2052.48 712.567L2061.85 719.518Z" fill="#E52031"/>
<path d="M2177.06 698.329L2111.19 778.4L2099.29 768.421L2120.94 742.113L2109.61 732.608L2087.96 758.916L2076.07 748.942L2141.94 668.871L2177.06 698.329ZM2155.75 699.788L2144.43 690.288L2119.02 721.171L2130.35 730.675L2155.75 699.788Z" fill="#E52031"/>
<path d="M2222.7 740.988L2236.35 754.118L2165.23 829.478L2154.04 818.708L2184.52 786.41L2206.64 766.623L2206.11 766.109L2161.76 797.379L2151.31 787.324L2179.88 740.879L2179.35 740.364L2161.06 763.842L2130.58 796.139L2119.39 785.369L2190.5 710.009L2204.15 723.139L2172.58 774.924L2172.89 775.232L2222.7 740.988Z" fill="#E52031"/>
<path d="M2223.91 895.948L2213.24 883.451L2241.19 841.052L2238.6 838.011L2201.8 870.049L2191.7 858.229L2269.76 790.269L2279.86 802.093L2249.74 828.304L2252.63 831.683L2291.3 815.491L2301.97 827.992L2255.91 846.896L2223.91 895.948Z" fill="#E52031"/>
<path d="M2247.8 927.344L2235.1 910.554L2246.8 901.52L2251.64 907.904L2268.74 898.642L2262.03 889.774L2308.2 835.603L2317.77 848.254L2281.43 890.908L2281.88 891.497L2330.66 865.276L2339.97 877.576L2247.8 927.344Z" fill="#E52031"/>
<path d="M2270.04 958.657L2258.53 941.555L2270.71 933.193L2274.02 938.115L2349.95 892.121L2371.15 923.618L2285.86 982.157L2277.16 969.238L2350.27 919.062L2345.96 912.664L2270.04 958.657Z" fill="#E52031"/>
<path d="M2291.8 991.601L2380.33 938.251L2388.25 951.661L2355.37 971.475L2367 991.143C2369.11 994.72 2368.06 998.464 2364.65 1000.52L2320.63 1027.04C2317.22 1029.1 2313.46 1028.25 2311.35 1024.67L2291.8 991.601ZM2312.38 997.387L2319.54 1009.52L2349.9 991.227L2342.73 979.099L2312.38 997.387Z" fill="#E52031"/>
<path d="M2407.46 984.578L2428.49 1024.66L2415.48 1031.62L2408.59 1018.48L2330.5 1060.25L2323.26 1046.46L2401.34 1004.68L2394.45 991.543L2407.46 984.578Z" fill="#E52031"/>
<path d="M2354.32 1109.98L2345.57 1090.8L2358.96 1084.58L2362.28 1091.87L2380.97 1086.62L2376.36 1076.49L2433.15 1033.88L2439.74 1048.34L2395.03 1081.89L2395.34 1082.57L2448.61 1067.8L2455.02 1081.85L2354.32 1109.98Z" fill="#E52031"/>
<path d="M2401.31 1134.48L2369.75 1146.89L2364.14 1132.35L2460.19 1094.57L2474.31 1131.15C2475.79 1135.03 2474.15 1138.55 2470.45 1140L2418.58 1160.4C2414.88 1161.86 2411.31 1160.39 2409.81 1156.51L2401.31 1134.48ZM2415.03 1129.09L2420.38 1142.94L2457.43 1128.37L2452.09 1114.51L2415.03 1129.09Z" fill="#E52031"/>
<path d="M2403.55 1223.92C2399.76 1225.11 2396.3 1223.4 2395.07 1219.43L2384.35 1184.78L2482.78 1153.74L2487.39 1168.64L2450.83 1180.18L2456.93 1199.91C2458.17 1203.89 2456.29 1207.29 2452.49 1208.48L2403.55 1223.92ZM2398.85 1231.64L2497.28 1200.59L2501.89 1215.5L2403.46 1246.55L2398.85 1231.64ZM2403.02 1195.26L2406.53 1206.62L2440.28 1195.97L2436.77 1184.61L2403.02 1195.26Z" fill="#E52031"/>
<path d="M1882.31 827.989L1842.58 712.504C2147.74 853.091 2349.96 1164.12 2342.03 1519.02L2257.18 1548.79C2276.29 1243.84 2123.66 972.937 1882.31 827.989ZM2030.56 1741.24L1995.83 1842.16L2971.08 1500L2420.52 1306.84L2455.26 1407.77L2718.14 1500C2112.32 1712.57 2477.14 1584.55 2030.56 1741.24ZM1222.49 764.448C1107.91 1097.36 1142.31 997.432 1067.73 1214.14L1354.78 1113.44C1439.13 1083.79 1531.99 1083.79 1616.34 1113.44L2134.76 1295.32L2100.03 1194.4L1643.6 1034.26C1541.67 998.481 1429.41 998.481 1327.5 1034.26L1202.39 1078.16L1485.53 255.407C1628.22 669.964 1559.33 469.812 1724.48 949.689L1824.41 984.753C1660.51 508.497 1731.3 714.208 1485.53 0L1256.49 665.655C1010.1 734.788 810.327 909.023 705.917 1139.39L820.373 1099.23C911.29 945.264 1052.55 826.446 1222.49 764.448ZM1748.56 2235.64C1861.79 1906.62 1828.38 2003.71 1903.33 1785.87L1616.34 1886.57C1531.99 1916.21 1439.13 1916.21 1354.78 1886.57L836.31 1704.67L871.047 1805.6C1335.01 1968.37 1071.08 1875.74 1327.5 1965.74C1429.42 2001.5 1541.67 2001.52 1643.6 1965.74L1768.69 1921.85L1485.53 2744.59C1342.87 2330.05 1411.66 2529.96 1246.61 2050.31L1146.66 2015.24C1316.53 2508.82 1237.47 2279.09 1485.53 3000L1714.71 2334.01C1961.04 2265.22 2160.68 2091.12 2265.01 1860.66L2151.06 1900.65C2060.15 2054.91 1918.71 2173.9 1748.56 2235.64ZM713.985 1451.18L629.118 1480.95C621.102 1837.32 825.025 2146.74 1128.31 2286.95L1088.54 2171.38C852.289 2029.06 695.227 1762.21 713.985 1451.18ZM940.531 1258.77L975.252 1157.85C888.423 1188.31 100.319 1464.8 0 1500L550.547 1693.15L515.816 1592.23L252.935 1500C873.51 1282.29 682.238 1349.36 940.531 1258.77Z" fill="url(#paint0_linear_1522_634)"/>
<path d="M965.592 1581.75V1704.67H910.02V1330.56H1049.75C1064.57 1330.56 1074.1 1340.71 1074.1 1355.14V1557.17C1074.1 1571.59 1064.57 1581.75 1049.75 1581.75H965.592ZM965.592 1528.3H1018.52V1384.01H965.592V1528.3Z" fill="#6DAD3A"/>
<path d="M1140.77 1704.67C1125.94 1704.67 1116.42 1694.51 1116.42 1680.08V1355.14C1116.42 1340.71 1125.94 1330.56 1140.77 1330.56H1258.8C1273.62 1330.56 1283.15 1340.71 1283.15 1355.14V1680.08C1283.15 1694.51 1273.62 1704.67 1258.8 1704.67H1140.77ZM1227.57 1651.23V1384.01H1171.99V1651.23H1227.57Z" fill="#6DAD3A"/>
<path d="M1460.44 1330.56V1384.01H1383.69V1704.67H1328.12V1330.56H1460.44Z" fill="#6DAD3A"/>
<path d="M1494.84 1330.56H1632.45V1384.01H1550.41V1474.86H1629.81V1528.3H1550.41V1651.23H1632.45V1704.67H1494.84V1330.56Z" fill="#6DAD3A"/>
<path d="M1791.21 1704.67V1495.17L1730.35 1623.97V1704.67H1674.78V1330.56H1730.35V1520.82L1791.21 1392.02V1330.56H1846.8V1704.67H1791.21ZM1717.12 1274.45H1793.86L1783.28 1314.53H1727.7L1717.12 1274.45Z" fill="#6DAD3A"/>
<path d="M2063.79 1330.56V1704.67H2008.21V1528.3H1947.34V1704.67H1891.77V1330.56H1947.34V1474.86H2008.21V1330.56H2063.79Z" fill="#6DAD3A"/>
<path d="M1496.17 850.343C1500.93 856.177 1506.06 861.728 1511.51 866.963C1537.02 891.455 1569.71 909.052 1606.2 916.516V894.517C1575.89 887.43 1548.73 872.37 1527.3 851.799C1520.27 845.044 1513.85 837.696 1508.15 829.842L1496.17 850.343Z" fill="#E52031"/>
<path d="M1417.04 827.432C1440.93 804.5 1455.75 772.878 1455.75 738.103V641.804H1478.09L1478.1 738.103C1478.1 755.037 1480.9 774.884 1486.03 790.262C1491.16 774.884 1493.96 755.037 1493.96 738.103L1493.96 641.804H1516.3L1516.3 738.103C1516.3 772.878 1531.13 804.5 1555.01 827.432C1569.26 841.112 1586.73 851.695 1606.2 858.008V880.469C1580.56 873.478 1557.59 860.24 1539.22 842.596C1525.41 829.337 1514.19 813.587 1506.38 796.132C1500.55 811.257 1494.11 825.578 1486.08 836.483L1486.03 836.556L1485.98 836.483C1477.94 825.578 1471.51 811.257 1465.68 796.132C1457.86 813.587 1446.65 829.337 1432.84 842.596C1414.46 860.24 1391.49 873.478 1365.85 880.469V858.008C1385.32 851.695 1402.8 841.112 1417.04 827.432Z" fill="#E52031"/>
<path d="M1552.01 736.09C1552.01 761.427 1562.82 784.47 1580.22 801.182C1587.76 808.418 1596.53 814.465 1606.2 818.996V842.353C1590.4 836.578 1576.19 827.636 1564.43 816.347C1542.98 795.758 1529.67 767.349 1529.67 736.09V714.392H1552.01V736.09Z" fill="#E52031"/>
<path d="M1420.04 714.392H1442.38V736.09C1442.38 767.349 1429.07 795.758 1407.63 816.347C1395.87 827.636 1381.66 836.578 1365.86 842.353V818.996C1375.52 814.465 1384.29 808.418 1391.83 801.182C1409.24 784.47 1420.04 761.427 1420.04 736.09V714.392Z" fill="#E52031"/>
<path d="M1463.91 829.842C1458.2 837.696 1451.78 845.044 1444.75 851.799C1423.32 872.37 1396.17 887.43 1365.85 894.517V916.516C1402.34 909.052 1435.03 891.455 1460.54 866.963C1466 861.728 1471.12 856.177 1475.88 850.343L1463.91 829.842Z" fill="#E52031"/>
<defs>
<linearGradient id="paint0_linear_1522_634" x1="1097.42" y1="175.314" x2="1926.63" y2="2951.19" gradientUnits="userSpaceOnUse">
<stop stop-color="#F0AC2C"/>
<stop offset="1" stop-color="#EC8C2C"/>
</linearGradient>
</defs>
</svg>
